<svg xmlns="http://www.w3.org/2000/svg" width="36" height="36" viewBox="0 0 36 36">
  <g fill="none" fill-rule="evenodd" class="page-1">
    <g fill="#000" fill-rule="nonzero" class="social-facebook">
      <path d="M34.013 0H1.987C.889 0 0 .89 0 1.987v32.026C0 35.111.89 36 1.987 36h17.242V22.059h-4.692v-5.433h4.691v-4.007c0-4.65 2.84-7.181 6.988-7.181 1.987 0 3.695.147 4.193.214v4.859l-2.877.002c-2.256 0-2.692 1.072-2.692 2.645v3.469h5.38l-.701 5.433h-4.68V36h9.175C35.11 36 36 35.11 36 34.013V1.987C36 .889 35.11 0 34.013 0z" class="path"/>
    </g>
  </g>
</svg>
