<svg xmlns="http://www.w3.org/2000/svg" width="36" height="37" viewBox="0 0 36 37">
  <g fill="none" fill-rule="evenodd" class="page-1">
    <g fill="#000" fill-rule="nonzero" class="social-instagram">
      <path d="M26.98 15.894a8.98 8.98 0 0 1-17.96 0A8.93 8.93 0 0 1 9.918 12H0v21a3.51 3.51 0 0 0 3.5 3.5h29A3.51 3.51 0 0 0 36 33V12h-9.918a8.924 8.924 0 0 1 .898 3.894z" class="path"/>
      <path d="M32.5 0h-29A3.51 3.51 0 0 0 0 3.5v7h10.832a8.956 8.956 0 0 1 14.335 0H36v-7A3.51 3.51 0 0 0 32.5 0zm1.675 6.731a2.126 2.126 0 0 1-2.125 2.127h-3.454a2.126 2.126 0 0 1-2.127-2.127v-2.92c0-1.175.953-2.127 2.127-2.127h3.454c1.174 0 2.126.952 2.126 2.127v2.92z" class="shape"/>
      <path d="M18 23.824a7.91 7.91 0 1 0-.002-15.82A7.91 7.91 0 0 0 18 23.824zm0-14.212a6.302 6.302 0 1 1 0 12.605 6.302 6.302 0 0 1 0-12.604z" class="shape"/>
    </g>
  </g>
</svg>
