<svg xmlns="http://www.w3.org/2000/svg" width="36" height="30" viewBox="0 0 36 30">
  <g fill="none" fill-rule="evenodd" class="page-1">
    <g fill="#000" fill-rule="nonzero" class="social-twitter">
      <path d="M36 3.463a14.756 14.756 0 0 1-4.242 1.163A7.406 7.406 0 0 0 35.005.54a14.765 14.765 0 0 1-4.69 1.792A7.379 7.379 0 0 0 24.925 0a7.386 7.386 0 0 0-7.386 7.386c0 .578.065 1.142.191 1.683-6.138-.308-11.58-3.248-15.223-7.717a7.354 7.354 0 0 0-1 3.713 7.383 7.383 0 0 0 3.286 6.147 7.37 7.37 0 0 1-3.345-.923l-.001.093a7.391 7.391 0 0 0 5.924 7.241 7.43 7.43 0 0 1-3.335.127 7.394 7.394 0 0 0 6.899 5.13 14.822 14.822 0 0 1-9.173 3.161c-.596 0-1.184-.035-1.762-.103a20.905 20.905 0 0 0 11.321 3.317c13.585 0 21.014-11.253 21.014-21.012 0-.32-.007-.64-.021-.957A14.975 14.975 0 0 0 36 3.463z" class="path"/>
    </g>
  </g>
</svg>
