<svg xmlns="http://www.w3.org/2000/svg" width="36" height="37" viewBox="0 0 36 37">
  <g fill="none" fill-rule="evenodd" class="page-1">
    <g fill="#000" fill-rule="nonzero" class="social-linkedin" transform="translate(0 .5)">
      <path d="M33.334 0H2.657C1.19 0 0 1.163 0 2.594v30.809C0 34.836 1.19 36 2.658 36h30.676C34.8 36 36 34.836 36 33.403V2.594C36 1.163 34.801 0 33.334 0zM10.677 30.677H5.335v-17.18h5.342v17.18zM8.006 11.148a3.095 3.095 0 0 1-3.095-3.096 3.094 3.094 0 1 1 6.19 0 3.097 3.097 0 0 1-3.095 3.097zm22.669 19.529h-5.334v-8.354c0-1.993-.039-4.556-2.775-4.556-2.779 0-3.203 2.171-3.203 4.412v8.498h-5.337v-17.18h5.122v2.347h.073c.713-1.35 2.456-2.775 5.053-2.775 5.403 0 6.401 3.557 6.401 8.184v9.424z" class="shape"/>
    </g>
  </g>
</svg>
