<svg xmlns="http://www.w3.org/2000/svg" width="15" height="17"><path fill="silver" fill-opacity="1" d="M4.8.724c-.003-.006-.006-.01-.01-.01a.055.055 0 0 0-.013-.002h-.012l-.011.001a.03.03 0 0 0-.01.005.164.164 0 0 1-.02.013 1.866 1.866 0 0 0-.022.013l-.009.007a.36.36 0 0 0-.051.047.26.26 0 0 0-.02.023.506.506 0 0 0-.02.025.065.065 0 0 0-.011.012.09.09 0 0 1-.01.012.101.101 0 0 0-.009.01.146.146 0 0 1-.009.011 1.44 1.44 0 0 1-.062.081.617.617 0 0 0-.042.084 2.99 2.99 0 0 0-.03.073.236.236 0 0 1-.01.028 1.243 1.243 0 0 1-.009.038.66.66 0 0 1-.008.04.146.146 0 0 0-.002.025v.083l-.001.014V1.472l-.001.011-.001.01v.037l.001.012a.299.299 0 0 0 .007.025.246.246 0 0 0 .005.011.06.06 0 0 1 .004.011.115.115 0 0 0 .003.011.103.103 0 0 1 .003.012.143.143 0 0 0 .004.012.124.124 0 0 1 .003.012.165.165 0 0 0 .01.033.96.96 0 0 0 .018.048 56.146 56.146 0 0 1 .02.059.279.279 0 0 1 .015.033.551.551 0 0 1 .019.044 2.767 2.767 0 0 1 .017.035.558.558 0 0 0 .061.081.217.217 0 0 1 .016.02.896.896 0 0 1 .057.092 1.27 1.27 0 0 1 .045.118 1.39 1.39 0 0 1 .01.022l.007.01.007.01a1.678 1.678 0 0 1 .048.078.257.257 0 0 1 .02.035.35.35 0 0 0 .023.038.17.17 0 0 0 .008.013.113.113 0 0 1 .013.025 2.004 2.004 0 0 1 .033.091.204.204 0 0 1 .006.026.304.304 0 0 1 .007.025.381.381 0 0 1 .006.024.124.124 0 0 0 .004.012.184.184 0 0 1 .007.024 5.68 5.68 0 0 1 .025.08.094.094 0 0 0 .005.011.119.119 0 0 1 .005.012.1.1 0 0 0 .004.012.349.349 0 0 1 .028.106.16.16 0 0 0 .02.097.632.632 0 0 1 .025.074.237.237 0 0 1 .008.032.166.166 0 0 1 .004.018c0 .006.002.012.003.017a.559.559 0 0 1 .008.035.77.77 0 0 0 .046.13.335.335 0 0 0 .011.036l.004.013a.32.32 0 0 0 .009.033.164.164 0 0 0 .004.017.266.266 0 0 1 .01.034.972.972 0 0 0 .02.07.69.69 0 0 0 .012.047.084.084 0 0 1 .002.012l.002.01.002.012a.226.226 0 0 0 .005.032 1.7 1.7 0 0 0 .013.08.246.246 0 0 0 .004.018.816.816 0 0 0 .03.113l.004.014.003.013a.186.186 0 0 1 .004.017.156.156 0 0 0 .005.016l.004.017a.26.26 0 0 0 .01.035.393.393 0 0 0 .014.05.65.65 0 0 1 .017.09.306.306 0 0 0 .007.04 1.123 1.123 0 0 1 .01.09l.002.01a.226.226 0 0 0 .003.023.619.619 0 0 0 .013.09.068.068 0 0 1 .002.01.16.16 0 0 0 .11.354.094.094 0 0 1 .004.01 1.806 1.806 0 0 0 .132.416c0 .005.002.01.004.013a.054.054 0 0 1 .004.013c0 .004.002.008.004.013a.206.206 0 0 1 .012.037.114.114 0 0 1 .003.013.28.28 0 0 0 .024.079l.004.016c0 .005.002.01.004.016a.174.174 0 0 1 .074.269.143.143 0 0 0 .007.027.478.478 0 0 1 .018.067 11.963 11.963 0 0 0 .046.138.181.181 0 0 0 .01.024.595.595 0 0 1 .016.038.516.516 0 0 1 .02.054.543.543 0 0 1 .02.056c0 .005.002.01.004.014a.505.505 0 0 0 .03.092.14.14 0 0 0 .004.012.078.078 0 0 1 .004.012.066.066 0 0 0 .004.012.105.105 0 0 1 .004.011.107.107 0 0 0 .005.012.06.06 0 0 1 .004.012c0 .004.002.008.003.011a.129.129 0 0 1 .009.023.357.357 0 0 1 .012.035.408.408 0 0 1 .015.048.408.408 0 0 1 .016.047.378.378 0 0 0 .011.035.277.277 0 0 0 .012.034.098.098 0 0 1 .003.011.097.097 0 0 0 .008.023.045.045 0 0 1 .004.011.124.124 0 0 0 .007.023.175.175 0 0 1 .008.022.283.283 0 0 1 .01.032l.005.01a.045.045 0 0 1 .004.011.377.377 0 0 1 .023.073.084.084 0 0 1 .058.241.226.226 0 0 0 .004.032l.002.01a.18.18 0 0 0 .003.015.166.166 0 0 1 .004.026l.002.01a.147.147 0 0 0 .005.021l.002.01a.187.187 0 0 0 .006.03 1.125 1.125 0 0 1 .015.07.319.319 0 0 1 .008.028.305.305 0 0 1 .01.04.563.563 0 0 1 .012.04 1.487 1.487 0 0 0 .033.116c0 .005.002.011.004.017a.39.39 0 0 1 .012.047l.004.016a.194.194 0 0 1 .009.028.448.448 0 0 1 .012.038.091.091 0 0 1 .005.023l.003.013a.104.104 0 0 1 .006.024.62.62 0 0 0 .012.05l.002.011.002.012a.474.474 0 0 1 .01.093V7.659a.148.148 0 0 0 .002.026v.013l.001.014.001.013v.09a1.514 1.514 0 0 1-.012.064.09.09 0 0 1-.02.026.196.196 0 0 1-.02.015.08.08 0 0 1-.02.008.043.043 0 0 1-.01.001h-.011c-.004 0-.008 0-.011-.002a.082.082 0 0 1-.02-.02.162.162 0 0 0-.008-.01.085.085 0 0 1-.013-.02.27.27 0 0 0-.11-.204.287.287 0 0 1-.028-.045.366.366 0 0 0-.013-.02.041.041 0 0 0-.006-.01.075.075 0 0 1-.007-.01.22.22 0 0 0-.013-.019 2.744 2.744 0 0 0-.044-.071.25.25 0 0 1-.014-.024.335.335 0 0 0-.015-.023.143.143 0 0 1-.007-.012.163.163 0 0 1-.102-.163.125.125 0 0 0-.008-.016.125.125 0 0 1-.01-.016.116.116 0 0 0-.009-.017.247.247 0 0 1-.019-.03.362.362 0 0 1-.02-.036.693.693 0 0 1-.03-.05.448.448 0 0 0-.031-.047.216.216 0 0 0-.017-.027 2.53 2.53 0 0 0-.029-.057.294.294 0 0 0-.03-.064 2.354 2.354 0 0 0-.074-.136.275.275 0 0 1-.021-.031 1.213 1.213 0 0 1-.087-.126.278.278 0 0 1-.01-.015.212.212 0 0 0-.011-.015.212.212 0 0 1-.022-.03 1.085 1.085 0 0 0-.028-.044 3.069 3.069 0 0 1-.073-.127.817.817 0 0 1-.03-.048.575.575 0 0 0-.017-.034.327.327 0 0 0-.023-.042.36.36 0 0 0-.068-.09.275.275 0 0 0-.032-.03.189.189 0 0 0-.017-.016.66.66 0 0 1-.033-.032.073.073 0 0 1-.008-.009.169.169 0 0 0-.017-.018.093.093 0 0 0-.01-.009.143.143 0 0 1-.017-.017.17.17 0 0 1-.009-.01.095.095 0 0 0-.009-.009.06.06 0 0 1-.008-.009.074.074 0 0 0-.009-.01.11.11 0 0 1-.016-.018.203.203 0 0 0-.016-.02l-.007-.01a6999.956 6999.956 0 0 1-.029-.042.1.1 0 0 1-.007-.011.105.105 0 0 0-.007-.011.101.101 0 0 1-.007-.011.18.18 0 0 0-.015-.023.35.35 0 0 0-.015-.024.177.177 0 0 0-.024-.034 1.39 1.39 0 0 1-.039-.058.522.522 0 0 1-.06-.1.317.317 0 0 1-.015-.026.094.094 0 0 1-.008-.013.233.233 0 0 0-.015-.028.132.132 0 0 1-.007-.014.246.246 0 0 0-.015-.028.17.17 0 0 1-.018-.04.23.23 0 0 1-.013-.029.322.322 0 0 0-.019-.042.151.151 0 0 1-.007-.014.106.106 0 0 0-.006-.014.116.116 0 0 1-.006-.014.088.088 0 0 0-.007-.013.245.245 0 0 1-.014-.026.205.205 0 0 0-.014-.023.25.25 0 0 0-.02-.032 16.991 16.991 0 0 1-.025-.037.501.501 0 0 0-.057-.08l-.01-.016a.325.325 0 0 0-.02-.03.706.706 0 0 1-.029-.057 1.024 1.024 0 0 0-.015-.049.098.098 0 0 1-.004-.011.097.097 0 0 0-.003-.012.094.094 0 0 1-.003-.012.21.21 0 0 0-.007-.024.084.084 0 0 1-.003-.013.082.082 0 0 0-.004-.012.081.081 0 0 1-.003-.012.3.3 0 0 1-.012-.036.106.106 0 0 1-.004-.013.146.146 0 0 0-.01-.024.16.16 0 0 0-.005-.012.116.116 0 0 1-.04-.1.285.285 0 0 0-.014-.041.206.206 0 0 0-.005-.014.114.114 0 0 1-.004-.016.265.265 0 0 0-.008-.031.393.393 0 0 1-.015-.066.424.424 0 0 0-.012-.05.425.425 0 0 1-.008-.032.906.906 0 0 1-.037-.11.206.206 0 0 1-.006-.018.25.25 0 0 0-.013-.035.171.171 0 0 1-.005-.018.712.712 0 0 1-.127-.45.212.212 0 0 0-.014-.033.2.2 0 0 1-.013-.033.378.378 0 0 1-.013-.032.515.515 0 0 1-.026-.064.238.238 0 0 1-.012-.03.763.763 0 0 0-.019-.05.374.374 0 0 0-.018-.048.396.396 0 0 1-.014-.033.575.575 0 0 1-.027-.064 2.473 2.473 0 0 1-.034-.077.494.494 0 0 1-.027-.062.79.79 0 0 1-.021-.046.368.368 0 0 1-.013-.03.451.451 0 0 0-.02-.044 4.779 4.779 0 0 0-.095-.217.118.118 0 0 1-.006-.014 1.213 1.213 0 0 0-.03-.066.151.151 0 0 1-.006-.012.095.095 0 0 0-.006-.013.142.142 0 0 1-.006-.011.15.15 0 0 0-.012-.024.25.25 0 0 0-.007-.01.077.077 0 0 1-.006-.012.08.08 0 0 0-.005-.01.141.141 0 0 1-.006-.011.141.141 0 0 0-.013-.021.163.163 0 0 1-.01-.02.083.083 0 0 0-.006-.01.075.075 0 0 1-.006-.01.086.086 0 0 0-.006-.009.086.086 0 0 1-.006-.01 8.3 8.3 0 0 0-.063-.088.168.168 0 0 0-.012-.012.096.096 0 0 1-.01-.013.978.978 0 0 1-.044-.045.91.91 0 0 0-.036-.025.13.13 0 0 1-.013-.007.342.342 0 0 0-.068-.027 1.382 1.382 0 0 0-.04-.006h-.094a.19.19 0 0 0-.034.002 29.685 29.685 0 0 1-.033.007.296.296 0 0 1-.015.004.144.144 0 0 0-.016.005.275.275 0 0 1-.033.012.693.693 0 0 0-.143.08 2.98 2.98 0 0 0-.165.11.405.405 0 0 0-.04.04.165.165 0 0 0-.01.014.275.275 0 0 1-.032.042.065.065 0 0 0-.006.008.155.155 0 0 1-.008.013.177.177 0 0 0-.015.02.415.415 0 0 0-.04.095.374.374 0 0 1-.018.05 4.778 4.778 0 0 0-.012.031.67.67 0 0 0-.027.147V3.375l.001.01a.226.226 0 0 1 .003.028 13750.9 13750.9 0 0 1 .013.085.162.162 0 0 0 .005.024.052.052 0 0 1 .003.012.09.09 0 0 0 .002.012l.001.011.002.013a.375.375 0 0 1 .008.034.176.176 0 0 1 .003.011l.003.012a.104.104 0 0 1 .006.022.31.31 0 0 0 .013.046c0 .005.002.009.003.012a.067.067 0 0 1 .003.012.122.122 0 0 0 .007.025.127.127 0 0 1 .004.012.13.13 0 0 0 .003.012 1.195 1.195 0 0 0 .066.237.122.122 0 0 1 .003.013.114.114 0 0 0 .008.025.147.147 0 0 1 .009.026.695.695 0 0 0 .047.118.318.318 0 0 1 .011.027.284.284 0 0 1 .012.026.264.264 0 0 0 .013.027.355.355 0 0 1 .011.028.113.113 0 0 1 .006.013l.006.015a.223.223 0 0 1 .011.03 4.457 4.457 0 0 0 .019.059l.004.015a.14.14 0 0 1 .005.014l.004.014a.176.176 0 0 1 .009.028.184.184 0 0 0 .005.014.14.14 0 0 1 .004.014l.005.014a.146.146 0 0 1 .008.027l.005.013a.14.14 0 0 1 .004.013.125.125 0 0 0 .005.013.189.189 0 0 1 .008.026 1.616 1.616 0 0 0 .02.07c0 .006.002.01.003.016l.003.015a.223.223 0 0 1 .007.032 1.005 1.005 0 0 0 .045.155 1.171 1.171 0 0 1 .017.055.523.523 0 0 0 .012.042.888.888 0 0 1 .017.06l.005.015a.276.276 0 0 0 .01.03.47.47 0 0 0 .016.043.302.302 0 0 1 .01.031 5.287 5.287 0 0 1 .046.138l.005.014a.327.327 0 0 1 .016.05 1.666 1.666 0 0 1 .033.124.533.533 0 0 0 .021.071 12.563 12.563 0 0 1 .075.26.459.459 0 0 0 .012.037.463.463 0 0 1 .124.389l.007.017a.407.407 0 0 0 .02.05 1.066 1.066 0 0 1 .018.049.311.311 0 0 1 .019.05.763.763 0 0 1 .024.064 4.78 4.78 0 0 0 .019.048.893.893 0 0 1 .029.08.208.208 0 0 0 .011.032.317.317 0 0 1 .012.032l.005.016a.084.084 0 0 0 .006.015 1.234 1.234 0 0 0 .06.13l.006.015a.388.388 0 0 1 .02.042 1.467 1.467 0 0 1 .033.071 2.177 2.177 0 0 0 .043.087.387.387 0 0 1 .015.03.233.233 0 0 0 .014.03.502.502 0 0 0 .04.075.645.645 0 0 1 .027.048.25.25 0 0 0 .012.026 1.439 1.439 0 0 1 .023.055.519.519 0 0 1 .021.055l.007.014a.354.354 0 0 0 .034.08 3.615 3.615 0 0 1 .08.162 1.29 1.29 0 0 1 .095.18.162.162 0 0 0 .015.032 3.267 3.267 0 0 0 .19.278.116.116 0 0 0 .01.014.168.168 0 0 1 .019.026.27.27 0 0 0 .017.025 1.102 1.102 0 0 0 .026.037.217.217 0 0 1 .016.024.74.74 0 0 0 .008.011l.008.012a.481.481 0 0 0 .015.023.686.686 0 0 1 .044.07.082.082 0 0 0 .007.012.082.082 0 0 1 .007.011.057.057 0 0 0 .007.011.065.065 0 0 1 .008.01.065.065 0 0 0 .007.011.559.559 0 0 0 .036.049.085.085 0 0 0 .007.01.087.087 0 0 1 .007.01.09.09 0 0 0 .007.01.085.085 0 0 1 .007.01.165.165 0 0 0 .014.018.538.538 0 0 1 .072.127.38.38 0 0 0 .02.041c0 .004.002.007.004.01a.613.613 0 0 0 .018.047c0 .004.002.009.004.015a.066.066 0 0 1 .004.015c0 .004.002.009.004.015a.384.384 0 0 1 .006.026.325.325 0 0 0 .01.03.286.286 0 0 0 .013.042 1.201 1.201 0 0 1 .012.031.257.257 0 0 0 .028.056.203.203 0 0 1 .062.147.294.294 0 0 0 .011.034 4.438 4.438 0 0 1 .025.097 2.327 2.327 0 0 1 .011.071l.001.016.001.015a.449.449 0 0 0 .005.043v.086a.083.083 0 0 1-.005.028.316.316 0 0 0-.01.026.218.218 0 0 1-.06.082.159.159 0 0 1-.012.011.136.136 0 0 0-.018.016.287.287 0 0 1-.024.02.056.056 0 0 1-.01.008.11.11 0 0 0-.008.007.244.244 0 0 1-.109.07.24.24 0 0 0-.013.003.058.058 0 0 1-.013.001H4.446a.212.212 0 0 0-.031.002 1.317 1.317 0 0 1-.03.002H4.35l-.01-.001a.135.135 0 0 1-.023-.009.187.187 0 0 0-.024-.012.349.349 0 0 0-.024-.011.579.579 0 0 0-.02-.015 1.313 1.313 0 0 1-.031-.03.95.95 0 0 1-.104-.138.164.164 0 0 1-.01-.014.201.201 0 0 0-.01-.014.2.2 0 0 1-.053-.091.238.238 0 0 0-.015-.03.397.397 0 0 0-.017-.027.236.236 0 0 0-.02-.022.4.4 0 0 1-.02-.022l-.01-.01a.175.175 0 0 0-.011-.01.175.175 0 0 1-.022-.02.128.128 0 0 0-.01-.01.927.927 0 0 1-.15-.11.312.312 0 0 0-.03-.02 1.243 1.243 0 0 0-.098-.067 2.814 2.814 0 0 0-.065-.047.145.145 0 0 1-.013-.01.147.147 0 0 0-.013-.011 2.071 2.071 0 0 0-.11-.101l-.009-.01a.114.114 0 0 0-.01-.008.05.05 0 0 1-.008-.01.095.095 0 0 0-.008-.009.211.211 0 0 1-.009-.01.093.093 0 0 0-.01-.01.218.218 0 0 1-.028-.027.166.166 0 0 0-.02-.021.165.165 0 0 1-.011-.011.347.347 0 0 0-.177-.162l-.015-.01a8.152 8.152 0 0 0-.092-.064.426.426 0 0 1-.034-.022.484.484 0 0 1-.07-.045 1.616 1.616 0 0 1-.131-.102.729.729 0 0 1-.054-.057.263.263 0 0 1-.028-.03.464.464 0 0 0-.044-.047.276.276 0 0 0-.028-.03.376.376 0 0 0-.03-.03.499.499 0 0 0-.03-.03.533.533 0 0 0-.08-.074 1.945 1.945 0 0 0-.065-.056A.376.376 0 0 1 2.4 8a.514.514 0 0 1-.062-.073.698.698 0 0 0-.038-.047.298.298 0 0 0-.024-.03.272.272 0 0 0-.025-.032.413.413 0 0 0-.025-.032.289.289 0 0 0-.022-.03.559.559 0 0 1-.024-.033 2.937 2.937 0 0 1-.025-.03l-.012-.016a1.213 1.213 0 0 1-.024-.031 9827.357 9827.357 0 0 1-.207-.246.186.186 0 0 0-.013-.013.153.153 0 0 1-.013-.013.282.282 0 0 0-.037-.039.274.274 0 0 1-.027-.026 6.72 6.72 0 0 0-.102-.104.318.318 0 0 0-.025-.025 1.758 1.758 0 0 1-.038-.042.388.388 0 0 1-.024-.028 18.56 18.56 0 0 1-.05-.059 1.377 1.377 0 0 0-.033-.042.84.84 0 0 1-.053-.07.228.228 0 0 1-.022-.026.247.247 0 0 1-.011-.015.218.218 0 0 0-.023-.029 1.13 1.13 0 0 0-.047-.058.46.46 0 0 1-.038-.045.39.39 0 0 0-.025-.03.478.478 0 0 0-.026-.03.23.23 0 0 0-.025-.029.232.232 0 0 0-.011-.012.215.215 0 0 1-.012-.012.227.227 0 0 0-.025-.026.304.304 0 0 1-.024-.023.138.138 0 0 0-.012-.01.194.194 0 0 1-.012-.01 2.45 2.45 0 0 0-.206-.144.214.214 0 0 0-.022-.011.214.214 0 0 0-.034-.014.14.14 0 0 0-.023-.009 1.023 1.023 0 0 0-.036-.01.66.66 0 0 0-.064-.009H.663l-.01.001a.109.109 0 0 0-.023.002.328.328 0 0 1-.021.004.106.106 0 0 1-.02.003.63.63 0 0 0-.063.009.168.168 0 0 0-.013.002.157.157 0 0 1-.024.003.335.335 0 0 1-.042.004.827.827 0 0 1-.044.007.426.426 0 0 0-.036.018.085.085 0 0 0-.016.019.417.417 0 0 1-.014.037.286.286 0 0 1-.006.03.167.167 0 0 0-.004.015l-.003.016a.495.495 0 0 0-.033.195V6.937c0 .005 0 .01.002.015.001.005.003.01.003.016l.003.016.004.017a.235.235 0 0 0 .006.033 7.952 7.952 0 0 0 .007.055.348.348 0 0 1 .004.05.262.262 0 0 0 .001.036l.002.018.003.016.003.016.003.015a1.817 1.817 0 0 1 .02.078.388.388 0 0 1 .009.033 1.567 1.567 0 0 0 .02.047.124.124 0 0 1 .006.014.521.521 0 0 1 .046.075.217.217 0 0 0 .018.028.201.201 0 0 0 .016.025.71.71 0 0 0 .064.082.083.083 0 0 1 .007.01.149.149 0 0 0 .014.02.075.075 0 0 1 .006.01.12.12 0 0 0 .013.02 2.744 2.744 0 0 1 .053.092l.006.01a2.744 2.744 0 0 1 .066.114.277.277 0 0 0 .018.035.147.147 0 0 0 .013.024.54.54 0 0 1 .022.037.405.405 0 0 0 .037.05.416.416 0 0 1 .032.044.17.17 0 0 0 .01.015.266.266 0 0 1 .024.032l.013.016a.249.249 0 0 1 .024.032.308.308 0 0 0 .024.031 1.213 1.213 0 0 1 .047.063 18738.967 18738.967 0 0 1 .096.13l.01.015a.287.287 0 0 0 .023.033.885.885 0 0 0 .033.05 11.294 11.294 0 0 1 .049.069l.013.017a.34.34 0 0 1 .025.034.452.452 0 0 0 .025.032.318.318 0 0 0 .025.03.779.779 0 0 0 .023.031 1.257 1.257 0 0 1 .037.05 1.086 1.086 0 0 0 .058.078l.01.014a.255.255 0 0 0 .023.03.815.815 0 0 1 .022.028.323.323 0 0 1 .022.028.476.476 0 0 1 .052.068.304.304 0 0 1 .02.027.471.471 0 0 1 .029.04.278.278 0 0 0 .02.028 1.084 1.084 0 0 1 .051.064.242.242 0 0 1 .02.026.271.271 0 0 1 .02.026 1.048 1.048 0 0 0 .066.081.111.111 0 0 1 .01.012.173.173 0 0 0 .14.157.12.12 0 0 1 .009.01.151.151 0 0 0 .01.01.172.172 0 0 1 .018.022.186.186 0 0 0 .01.011.166.166 0 0 1 .01.012.21.21 0 0 0 .019.023.139.139 0 0 1 .01.012.169.169 0 0 0 .02.024.938.938 0 0 1 .032.04.552.552 0 0 1 .033.038.23.23 0 0 0 .023.027.228.228 0 0 1 .01.013.213.213 0 0 0 .024.026.92.92 0 0 0 .037.04.225.225 0 0 1 .024.027 5.211 5.211 0 0 1 .053.056.624.624 0 0 1 .053.053.392.392 0 0 1 .027.026.528.528 0 0 1 .053.053.268.268 0 0 0 .027.026.528.528 0 0 1 .027.026.32.32 0 0 1 .03.028 1.701 1.701 0 0 0 .031.026.5.5 0 0 1 .046.045.229.229 0 0 1 .028.03 5.195 5.195 0 0 0 .065.072.472.472 0 0 1 .036.041.31.31 0 0 1 .024.029.358.358 0 0 0 .023.027.306.306 0 0 0 .035.037.26.26 0 0 1 .022.027.559.559 0 0 0 .031.037l.01.013a1.154 1.154 0 0 0 .02.023.169.169 0 0 0 .019.024.985.985 0 0 1 .052.059.49.49 0 0 1 .03.034.228.228 0 0 1 .02.025.982.982 0 0 0 .028.035.413.413 0 0 1 .019.025.693.693 0 0 0 .08.12.256.256 0 0 1 .024.034.177.177 0 0 1 .017.024.197.197 0 0 0 .008.012.166.166 0 0 1 .008.012.344.344 0 0 1 .025.036.197.197 0 0 1 .018.024.266.266 0 0 1 .016.025 1.5 1.5 0 0 1 .04.063.246.246 0 0 1 .017.025.628.628 0 0 0 .072.088.201.201 0 0 0 .02.023.228.228 0 0 1 .02.025.724.724 0 0 0 .02.025.274.274 0 0 0 .02.024.198.198 0 0 1 .01.013l.01.013a.162.162 0 0 1 .01.013.242.242 0 0 0 .021.026.31.31 0 0 0 .022.027 4.009 4.009 0 0 1 .05.063.524.524 0 0 1 .032.039 1.416 1.416 0 0 1 .107.138.637.637 0 0 0 .034.044.84.84 0 0 0 .049.061 1.09 1.09 0 0 0 .066.085.342.342 0 0 0 .04.047.55.55 0 0 1 .039.047l.012.015a.287.287 0 0 1 .034.044.694.694 0 0 0 .023.029 1.004 1.004 0 0 1 .04.057.206.206 0 0 1 .02.029.26.26 0 0 0 .017.028.445.445 0 0 1 .026.043.252.252 0 0 0 .019.032.726.726 0 0 0 .03.05 5.54 5.54 0 0 0 .046.068 1.214 1.214 0 0 0 .022.031.909.909 0 0 0 .055.08.348.348 0 0 1 .02.03 1.17 1.17 0 0 1 .046.069.404.404 0 0 1 .035.055.357.357 0 0 1 .023.04.686.686 0 0 0 .032.056 3.43 3.43 0 0 0 .1.172.796.796 0 0 0 .077.12 1.097 1.097 0 0 0 .025.035 2.478 2.478 0 0 1 .046.072.662.662 0 0 1 .048.07 1.307 1.307 0 0 0 .047.068l.011.016a.162.162 0 0 0 .011.016c.004.005.008.01.01.017l.01.015a.431.431 0 0 1 .02.033l.01.017a.346.346 0 0 0 .017.032.291.291 0 0 0 .017.033.408.408 0 0 1 .03.069 2.46 2.46 0 0 0 .05.108 2.65 2.65 0 0 0 .057.094 1.717 1.717 0 0 0 .034.048.267.267 0 0 0 .017.024.522.522 0 0 0 .024.032l.007.01a.149.149 0 0 1 .008.01.149.149 0 0 0 .014.02.165.165 0 0 0 .014.02.051.051 0 0 1 .006.012.761.761 0 0 0 .031.05 2.58 2.58 0 0 0 .035.062.1.1 0 0 0 .006.01.127.127 0 0 1 .006.011.183.183 0 0 0 .01.02.18.18 0 0 1 .01.021.521.521 0 0 0 .013.034.22.22 0 0 1 .01.024 1.22 1.22 0 0 1 .024.061.561.561 0 0 0 .027.06.941.941 0 0 1 .03.08 2.268 2.268 0 0 0 .035.08l.006.013a.253.253 0 0 0 .007.013.12.12 0 0 1 .007.014l.008.013a4.683 4.683 0 0 1 .026.042l.01.014a1.649 1.649 0 0 1 .055.083.315.315 0 0 1 .018.025.456.456 0 0 1 .046.064.186.186 0 0 1 .009.012l.009.013a.13.13 0 0 1 .008.012.175.175 0 0 0 .01.014l.008.014a.192.192 0 0 0 .015.027 1.004 1.004 0 0 1 .043.07.102.102 0 0 1 .007.013l.009.015a.19.19 0 0 1 .017.028.418.418 0 0 0 .045.065.407.407 0 0 0 .038.045.296.296 0 0 0 .068.064.243.243 0 0 0 .013.01l.014.013a.114.114 0 0 0 .014.011 1.631 1.631 0 0 0 .156.153.21.21 0 0 0 .023.024.496.496 0 0 1 .024.024.428.428 0 0 1 .037.035.257.257 0 0 1 .024.023.882.882 0 0 0 .034.034.389.389 0 0 1 .021.025 15.92 15.92 0 0 1 .034.036.24.24 0 0 1 .012.013.15.15 0 0 0 .013.013.23.23 0 0 1 .023.022.096.096 0 0 0 .011.011.13.13 0 0 1 .013.011.203.203 0 0 0 .023.022.296.296 0 0 0 .024.02.333.333 0 0 0 .024.02.088.088 0 0 0 .012.011.43.43 0 0 1 .034.03.361.361 0 0 1 .163.157 2.916 2.916 0 0 0 .047.056l.01.009a.22.22 0 0 1 .016.018.264.264 0 0 1 .046.043 34.26 34.26 0 0 1 .122.104.354.354 0 0 0 .022.014.255.255 0 0 0 .022.016.21.21 0 0 1 .023.018.255.255 0 0 0 .022.017.08.08 0 0 0 .012.008.081.081 0 0 1 .01.007.247.247 0 0 0 .14.103.11.11 0 0 1 .014.009.11.11 0 0 0 .014.009.331.331 0 0 1 .027.017.462.462 0 0 0 .088.046.404.404 0 0 0 .061.03c.006.004.01.007.014.008a.223.223 0 0 0 .041.02c.006.001.01.004.016.007a.5.5 0 0 1 .107.06.094.094 0 0 1 .026.013l.013.008a.135.135 0 0 1 .014.007.213.213 0 0 0 .028.015.187.187 0 0 0 .03.015l.015.008a.167.167 0 0 0 .03.014.715.715 0 0 0 .045.013l.015.005a.326.326 0 0 1 .058.017l.014.004c.005 0 .01.002.015.004l.014.005a2.004 2.004 0 0 0 .028.006.12.12 0 0 1 .014.006.04.04 0 0 0 .013.003l.015.002a.734.734 0 0 0 .03.01.048.048 0 0 0 .016.005 2.078 2.078 0 0 1 .031.003.241.241 0 0 0 .056.007.301.301 0 0 1 .062.01 7.706 7.706 0 0 1 .062.005.079.079 0 0 0 .02.003h.02a.745.745 0 0 0 .059.004.9.9 0 0 1 .056.003 1.53 1.53 0 0 0 .058.005.77.77 0 0 0 .062.005 1.218 1.218 0 0 0 .086.005 1.342 1.342 0 0 0 .083.006 1.072 1.072 0 0 0 .055.003h.017a.29.29 0 0 1 .035.001h.1l.018-.001a.325.325 0 0 0 .04-.007 1.097 1.097 0 0 1 .12-.02 1.6 1.6 0 0 1 .11-.014.606.606 0 0 1 .049-.004.918.918 0 0 0 .065-.005.726.726 0 0 0 .072-.007 2.324 2.324 0 0 1 .057-.006.421.421 0 0 1 .056-.009.308.308 0 0 0 .035-.006.206.206 0 0 0 .035-.007.886.886 0 0 0 .047-.01.2.2 0 0 1 .033-.007 4.617 4.617 0 0 1 .118-.023.136.136 0 0 1 .017-.004.16.16 0 0 0 .016-.003.174.174 0 0 1 .017-.003.117.117 0 0 0 .018-.004.108.108 0 0 1 .017-.004.188.188 0 0 0 .035-.008.417.417 0 0 0 .035-.01.36.36 0 0 0 .075-.03.343.343 0 0 0 .038-.017 4.252 4.252 0 0 1 .075-.037.25.25 0 0 0 .019-.01.259.259 0 0 1 .039-.019.387.387 0 0 0 .066-.025.323.323 0 0 0 .023-.009.179.179 0 0 1 .023-.008.205.205 0 0 0 .024-.007.423.423 0 0 1 .047-.017 4.962 4.962 0 0 1 .09-.03 2.158 2.158 0 0 0 .046-.019 2.355 2.355 0 0 1 .201-.084 5.442 5.442 0 0 1 .22-.072.735.735 0 0 1 .071-.024.628.628 0 0 0 .054-.016.396.396 0 0 1 .05-.013.698.698 0 0 1 .104-.02 1.448 1.448 0 0 0 .069-.014 2.11 2.11 0 0 0 .243-.056.222.222 0 0 0 .04-.01c.007 0 .014-.003.021-.004l.02-.005a1.495 1.495 0 0 0 .263-.095 3.496 3.496 0 0 1 .057-.029 1.004 1.004 0 0 0 .06-.035.393.393 0 0 1 .038-.022 2.991 2.991 0 0 0 .132-.086.266.266 0 0 1 .03-.019.213.213 0 0 0 .026-.018.787.787 0 0 0 .038-.028l.012-.01a.085.085 0 0 1 .012-.01.087.087 0 0 0 .013-.01.326.326 0 0 1 .037-.029.542.542 0 0 0 .136-.139.74.74 0 0 1 .09-.135.27.27 0 0 1 .01-.019.268.268 0 0 0 .013-.02.364.364 0 0 1 .027-.045.898.898 0 0 0 .05-.088.354.354 0 0 1 .014-.022.731.731 0 0 0 .38-.556.456.456 0 0 1 .023-.046 1.341 1.341 0 0 1 .02-.047.865.865 0 0 0 .03-.078 1.69 1.69 0 0 0 .021-.052.394.394 0 0 0 .022-.053 2.931 2.931 0 0 1 .031-.08.496.496 0 0 0 .019-.05 1.49 1.49 0 0 0 .029-.08.555.555 0 0 1 .02-.055 1.599 1.599 0 0 1 .045-.128 2.402 2.402 0 0 1 .041-.102.728.728 0 0 0 .026-.066.925.925 0 0 1 .024-.063 1.997 1.997 0 0 1 .033-.087 6.862 6.862 0 0 1 .037-.108.728.728 0 0 1 .015-.056 5.737 5.737 0 0 0 .018-.088.817.817 0 0 1 .01-.06.89.89 0 0 0 .012-.095.644.644 0 0 1 .01-.062 1.063 1.063 0 0 0 .008-.062 4.104 4.104 0 0 0 .03-.172.573.573 0 0 0 .012-.057 2.304 2.304 0 0 1 .012-.058.773.773 0 0 0 .13-.82V11.619a.428.428 0 0 1 .002-.045.408.408 0 0 0 .002-.047.631.631 0 0 0 .005-.071 29.387 29.387 0 0 1 .003-.049l.003-.025.004-.026a2.152 2.152 0 0 0 .008-.052 2.205 2.205 0 0 0 .011-.052 1.558 1.558 0 0 0 .031-.126.34.34 0 0 1 .012-.048.577.577 0 0 0 .013-.07.199.199 0 0 0 .004-.024.356.356 0 0 1 .006-.047 5.62 5.62 0 0 0 .007-.094 7.307 7.307 0 0 1 .003-.09.362.362 0 0 1 .004-.064.399.399 0 0 0 .004-.043l.003-.022a.677.677 0 0 0 .024-.161 24.047 24.047 0 0 0 .134-.99l.003-.026a.41.41 0 0 0 .006-.05 1.307 1.307 0 0 1 .01-.078.948.948 0 0 1 .009-.085 2.21 2.21 0 0 1 .046-.26.98.98 0 0 1 .029-.115.576.576 0 0 0 .014-.06.826.826 0 0 0 .019-.086 1.063 1.063 0 0 0 .011-.06 1.742 1.742 0 0 0 .014-.06 1.182 1.182 0 0 0 .022-.093.876.876 0 0 1 .017-.063 3.486 3.486 0 0 1 .05-.19 16.414 16.414 0 0 1 .045-.186.954.954 0 0 0 .012-.066 1.239 1.239 0 0 0 .016-.104 7.844 7.844 0 0 0 .026-.158l.005-.031a.984.984 0 0 1 .012-.065.51.51 0 0 1 .012-.064 1.128 1.128 0 0 1 .03-.128 5.098 5.098 0 0 0 .024-.092 1.402 1.402 0 0 0 .027-.095 9.49 9.49 0 0 0 .049-.183.358.358 0 0 1 .005-.027 2.657 2.657 0 0 1 .024-.15.27.27 0 0 0 .09-.562.322.322 0 0 1 .004-.04 2.542 2.542 0 0 0 .006-.06.493.493 0 0 1 .007-.063 3.457 3.457 0 0 1 .011-.105.31.31 0 0 1 .006-.06l.002-.02a.17.17 0 0 0 .002-.018.264.264 0 0 1 .005-.038.78.78 0 0 0 .009-.072.355.355 0 0 1 .006-.036 1.96 1.96 0 0 0 .025-.25.174.174 0 0 0 .003-.03.383.383 0 0 1 .002-.028.163.163 0 0 1 .002-.028 37.645 37.645 0 0 0 .009-.073.7.7 0 0 1 .006-.04l.002-.013.002-.013a5.163 5.163 0 0 0 .006-.069V5.044l-.001-.016a5.58 5.58 0 0 0-.012-.078.306.306 0 0 1-.008-.03.405.405 0 0 1-.02-.063.16.16 0 0 0-.009-.025 1.39 1.39 0 0 0-.017-.053.13.13 0 0 0-.005-.015.142.142 0 0 1-.004-.014.307.307 0 0 0-.037-.082.186.186 0 0 0-.02-.028.594.594 0 0 1-.022-.026 7.061 7.061 0 0 0-.034-.029.44.44 0 0 0-.043-.024.23.23 0 0 0-.015-.006.066.066 0 0 0-.017-.003.122.122 0 0 1-.017-.003.09.09 0 0 0-.02-.002H14.134a.095.095 0 0 0-.032.006.317.317 0 0 0-.034.013.078.078 0 0 0-.013.005.155.155 0 0 1-.013.006.148.148 0 0 0-.013.006.146.146 0 0 1-.026.011.207.207 0 0 0-.026.012.537.537 0 0 1-.035.016.069.069 0 0 1-.012.005.053.053 0 0 0-.012.005.412.412 0 0 0-.046.022.074.074 0 0 1-.011.006.08.08 0 0 0-.011.004.204.204 0 0 1-.023.01.182.182 0 0 0-.012.006.182.182 0 0 1-.023.011.349.349 0 0 0-.06.032.383.383 0 0 0-.044.027.109.109 0 0 0-.011.006.105.105 0 0 1-.011.006.092.092 0 0 0-.011.006.776.776 0 0 0-.112.054l-.012.005a.084.084 0 0 0-.011.006.099.099 0 0 1-.012.006.162.162 0 0 0-.025.014.17.17 0 0 1-.014.007.108.108 0 0 0-.012.007.18.18 0 0 1-.024.014.22.22 0 0 0-.023.015 1.56 1.56 0 0 1-.083.051.136.136 0 0 0-.021.015.383.383 0 0 1-.032.024.165.165 0 0 0-.021.019.099.099 0 0 1-.012.01.19.19 0 0 0-.024.02.938.938 0 0 1-.034.031.206.206 0 0 0-.01.01.437.437 0 0 0-.055.046.198.198 0 0 0-.022.019 1.313 1.313 0 0 0-.076.068 1.263 1.263 0 0 1-.037.034 1.982 1.982 0 0 1-.074.075.715.715 0 0 0-.042.05.143.143 0 0 1-.01.012.557.557 0 0 1-.086.131.589.589 0 0 1-.015.028.202.202 0 0 1-.014.028.63.63 0 0 0-.02.041 7.655 7.655 0 0 0-.066.151.292.292 0 0 0-.011.031.36.36 0 0 0-.018.052.636.636 0 0 0-.01.034.423.423 0 0 1-.016.051.104.104 0 0 0-.005.017c0 .006-.002.011-.004.016a.663.663 0 0 1-.073.273.892.892 0 0 1-.02.094.441.441 0 0 1-.004.036 5.956 5.956 0 0 0-.022.16 1.591 1.591 0 0 1-.015.1 3.413 3.413 0 0 0-.012.088.607.607 0 0 0-.008.055.471.471 0 0 0-.006.035 2.329 2.329 0 0 0-.027.174.781.781 0 0 1-.017.102.262.262 0 0 0-.004.021.298.298 0 0 1-.003.022.298.298 0 0 0-.006.042 2.877 2.877 0 0 0-.025.304 11.435 11.435 0 0 1-.008.07 9.662 9.662 0 0 0-.033.242.94.94 0 0 1-.017.072.412.412 0 0 0-.009.026.128.128 0 0 0-.004.014.305.305 0 0 1-.075.222.114.114 0 0 0-.004.013.191.191 0 0 1-.008.024.2.2 0 0 1-.008.025.196.196 0 0 1-.008.024 60.4 60.4 0 0 1-.013.046.094.094 0 0 1-.004.011.115.115 0 0 0-.003.011.11.11 0 0 1-.003.011.093.093 0 0 0-.003.012.07.07 0 0 1-.004.011.386.386 0 0 1-.019.07.088.088 0 0 1-.003.011 1.333 1.333 0 0 1-.056.181.11.11 0 0 0-.003.012.115.115 0 0 1-.007.022 6.73 6.73 0 0 0-.036.1.111.111 0 0 1-.005.011.18.18 0 0 1-.013.031 1.392 1.392 0 0 1-.117.21.66.66 0 0 0-.026.024.696.696 0 0 1-.068.036.794.794 0 0 0-.032.013 1.257 1.257 0 0 1-.061.011h-.028c-.004 0-.009 0-.013-.002a.205.205 0 0 0-.012-.005.412.412 0 0 0-.054-.024.1.1 0 0 0-.01-.005.106.106 0 0 1-.01-.004.116.116 0 0 0-.013-.005l-.014-.006a.087.087 0 0 0-.014-.003.071.071 0 0 1-.013-.004.317.317 0 0 1-.19-.09 35.956 35.956 0 0 1-.08-.069.224.224 0 0 1-.022-.02.3.3 0 0 0-.025-.022.42.42 0 0 0-.023-.022 23.235 23.235 0 0 0-.037-.039.284.284 0 0 0-.012-.012 1.118 1.118 0 0 1-.106-.15.374.374 0 0 1-.029-.048.474.474 0 0 0-.018-.032.956.956 0 0 0-.06-.142.088.088 0 0 1-.004-.012.067.067 0 0 0-.003-.01.364.364 0 0 0-.04-.153.088.088 0 0 0-.003-.012.081.081 0 0 1-.003-.013.086.086 0 0 0-.004-.012.088.088 0 0 1-.003-.012.234.234 0 0 1-.007-.024.09.09 0 0 0-.005-.012.057.057 0 0 1-.003-.012.364.364 0 0 0-.044-.147 1.181 1.181 0 0 0-.106-.285.086.086 0 0 1-.008-.014 1.702 1.702 0 0 1-.035-.069.291.291 0 0 1-.015-.03.874.874 0 0 0-.024-.046l-.01-.015a1.63 1.63 0 0 1-.036-.063.78.78 0 0 1-.081-.139.232.232 0 0 1-.172-.32.574.574 0 0 1-.05-.11.374.374 0 0 0-.015-.039.756.756 0 0 1-.02-.061.596.596 0 0 0-.018-.064.42.42 0 0 0-.011-.042.282.282 0 0 0-.013-.041.34.34 0 0 1-.012-.043.414.414 0 0 0-.015-.042.33.33 0 0 1-.014-.043l-.008-.02a12.92 12.92 0 0 1-.04-.106 1.244 1.244 0 0 0-.018-.042 1.126 1.126 0 0 0-.049-.123 1.355 1.355 0 0 1-.025-.066.351.351 0 0 1-.014-.047.627.627 0 0 0-.014-.05 1.24 1.24 0 0 0-.02-.074 2.81 2.81 0 0 0-.019-.077.423.423 0 0 1-.011-.05.44.44 0 0 1-.012-.052.801.801 0 0 1-.025-.122.413.413 0 0 0-.01-.05 1.82 1.82 0 0 1-.02-.105.535.535 0 0 0-.009-.051.354.354 0 0 0-.009-.05 40.178 40.178 0 0 1-.083-.541.485.485 0 0 0-.013-.053 2.05 2.05 0 0 1-.026-.112A1.065 1.065 0 0 0 9.7 4.57a.856.856 0 0 1-.013-.056 10 10 0 0 1-.022-.084 2.17 2.17 0 0 1-.042-.17 105.705 105.705 0 0 1-.077-.421.582.582 0 0 0-.01-.066.689.689 0 0 0-.015-.092 1.227 1.227 0 0 0-.017-.09.678.678 0 0 1-.011-.057 3.791 3.791 0 0 0-.015-.09.53.53 0 0 0-.01-.06 1.136 1.136 0 0 1-.006-.062.507.507 0 0 1-.01-.064 3.016 3.016 0 0 1-.02-.122.456.456 0 0 0-.01-.06 8.402 8.402 0 0 0-.018-.088 2.294 2.294 0 0 0-.02-.09 7.005 7.005 0 0 1-.067-.333.791.791 0 0 0-.023-.097 73.641 73.641 0 0 1-.024-.093.48.48 0 0 0-.019-.062 1.179 1.179 0 0 0-.018-.058 1.869 1.869 0 0 1-.019-.06.797.797 0 0 1-.02-.061 2.051 2.051 0 0 0-.078-.202 1.694 1.694 0 0 1-.066-.166 2.6 2.6 0 0 1-.057-.14.807.807 0 0 1-.022-.052.95.95 0 0 1-.022-.05.584.584 0 0 1-.023-.05 1.818 1.818 0 0 1-.036-.075.79.79 0 0 1-.025-.054 1.267 1.267 0 0 0-.062-.116 1.543 1.543 0 0 1-.023-.044.555.555 0 0 0-.026-.041 6.855 6.855 0 0 1-.14-.248 7.483 7.483 0 0 1-.058-.107.931.931 0 0 0-.02-.032.492.492 0 0 0-.04-.052.271.271 0 0 1-.02-.023 5.082 5.082 0 0 0-.045-.04.746.746 0 0 0-.081-.06.206.206 0 0 0-.02-.012.135.135 0 0 0-.031-.015 3.385 3.385 0 0 1-.09-.025.883.883 0 0 0-.038-.004H8.1a5.578 5.578 0 0 0-.024.004.916.916 0 0 1-.037.013.289.289 0 0 0-.024.01.383.383 0 0 0-.037.018l-.012.006a.207.207 0 0 0-.024.015.692.692 0 0 0-.071.055.786.786 0 0 1-.03.032.08.08 0 0 0-.089.13.401.401 0 0 1-.02.039.618.618 0 0 1-.021.045 3.867 3.867 0 0 1-.074.184.244.244 0 0 0-.017.052.197.197 0 0 0-.008.035.977.977 0 0 0-.014.097l-.001.017v.137a.1.1 0 0 0 .001.016l.002.016a.154.154 0 0 0 .005.03.32.32 0 0 0 .008.03.421.421 0 0 0 .012.044.926.926 0 0 1 .016.061 3.923 3.923 0 0 1 .02.061.423.423 0 0 0 .022.058 4.978 4.978 0 0 0 .024.057l.006.014a1.213 1.213 0 0 0 .018.038.543.543 0 0 0 .022.048 1.205 1.205 0 0 1 .038.11 2.208 2.208 0 0 1 .029.143l.003.014a.16.16 0 0 1 .006.027.402.402 0 0 1 .008.045.559.559 0 0 1 .01.06.174.174 0 0 0 .005.03l.003.017a.653.653 0 0 0 .015.077 2.775 2.775 0 0 0 .016.064.678.678 0 0 0 .01.049 1.348 1.348 0 0 0 .012.066.22.22 0 0 1 .004.034.384.384 0 0 0 .003.035l.002.017a.755.755 0 0 1 .01.052.32.32 0 0 1 .013.056.323.323 0 0 1 .008.038.195.195 0 0 0 .005.018.102.102 0 0 1 .003.019.225.225 0 0 0 .008.04.29.29 0 0 1 .005.038.717.717 0 0 1 .01.077.267.267 0 0 1 .003.035 93.855 93.855 0 0 0 .01.163v.034l.001.016.001.018V3.5a.189.189 0 0 0 .002.03 1.885 1.885 0 0 0 .008.097.672.672 0 0 0 .002.032.258.258 0 0 0 .001.034v.034a.258.258 0 0 0 .001.035v.173a.252.252 0 0 1-.002.033v.017a.19.19 0 0 1-.001.018V4.191a.298.298 0 0 1 .002.042v.02l.002.019.001.02.002.02a1.119 1.119 0 0 0 .012.145l.002.02a.237.237 0 0 1 .004.042.352.352 0 0 0 .004.042.31.31 0 0 1 .004.043.42.42 0 0 0 .007.066.4.4 0 0 1 .002.023c0 .008 0 .015.002.022a1.988 1.988 0 0 1 .028.384v.024a.442.442 0 0 0 .001.047.362.362 0 0 0 .002.048.476.476 0 0 0 .001.048.465.465 0 0 0 .002.048l.001.024a.522.522 0 0 1 .002.05 1.14 1.14 0 0 1 .004.07 1.64 1.64 0 0 0 .023.157.23.23 0 0 0 .008.04.794.794 0 0 0 .016.07.241.241 0 0 1 .008.033.572.572 0 0 1 .013.055 1.042 1.042 0 0 1 .013.058.433.433 0 0 1 .007.04.542.542 0 0 1 .01.059 1.384 1.384 0 0 1 .012.107v.02a1.116 1.116 0 0 0 .004.055.286.286 0 0 0 .002.036.264.264 0 0 1 .001.036l.001.019V6.314a.2.2 0 0 0 0 .015l.001.015v.124l.001.015v.108l.002.015v.045l.001.014.001.015v.032l.001.015V6.969a.593.593 0 0 1-.013.072.62.62 0 0 0-.013.036.36.36 0 0 1-.013.019.026.026 0 0 1-.01.006.083.083 0 0 1-.027.004.047.047 0 0 1-.03-.012.738.738 0 0 0-.045-.036.198.198 0 0 0-.022-.018 6.51 6.51 0 0 0-.032-.02.214.214 0 0 1-.021-.01.11.11 0 0 1-.01-.005.419.419 0 0 1-.088-.048.057.057 0 0 1-.01-.007.227.227 0 0 0-.018-.017.165.165 0 0 1-.008-.01.145.145 0 0 0-.008-.01.073.073 0 0 1-.009-.012.27.27 0 0 0-.008-.013.062.062 0 0 1-.006-.013.343.343 0 0 0-.012-.03.983.983 0 0 0-.011-.03 21.081 21.081 0 0 0-.077-.265.413.413 0 0 0-.012-.045 1.192 1.192 0 0 1-.027-.142 8.667 8.667 0 0 1-.01-.088 1.895 1.895 0 0 0-.014-.123 1.169 1.169 0 0 0-.023-.139 1.055 1.055 0 0 0-.01-.053.364.364 0 0 0-.008-.053.456.456 0 0 0-.01-.051 4.881 4.881 0 0 0-.034-.194.348.348 0 0 0-.006-.024 1.739 1.739 0 0 1-.127-.761 4.76 4.76 0 0 0-.008-.082 1.509 1.509 0 0 1-.01-.05.677.677 0 0 1-.012-.048 3.299 3.299 0 0 0-.043-.116.732.732 0 0 0-.043-.092 8.618 8.618 0 0 0-.035-.067 1.15 1.15 0 0 1-.038-.069 1.24 1.24 0 0 1-.04-.074.321.321 0 0 0-.027-.047 1.643 1.643 0 0 1-.042-.071.765.765 0 0 1-.04-.072.35.35 0 0 0-.013-.023.74.74 0 0 0-.04-.075 1.008 1.008 0 0 0-.037-.075.42.42 0 0 0-.023-.053.992.992 0 0 1-.043-.107.64.64 0 0 1-.022-.057.462.462 0 0 0-.022-.056.44.44 0 0 0-.022-.054 2.66 2.66 0 0 1-.034-.086.64.64 0 0 0-.026-.055 1.669 1.669 0 0 0-.039-.084.768.768 0 0 0-.027-.054.598.598 0 0 0-.041-.077 1.402 1.402 0 0 0-.045-.077.44.44 0 0 0-.03-.046 8.322 8.322 0 0 0-.042-.075.578.578 0 0 1-.034-.072 1.248 1.248 0 0 1-.034-.081 32140.455 32140.455 0 0 0-.034-.08 2.026 2.026 0 0 0-.032-.087.908.908 0 0 1-.02-.058 1.444 1.444 0 0 1-.038-.12.683.683 0 0 1-.02-.06.612.612 0 0 1-.018-.056 1.465 1.465 0 0 0-.032-.084 1.006 1.006 0 0 0-.03-.079.819.819 0 0 1-.031-.079 1.602 1.602 0 0 0-.046-.121.643.643 0 0 0-.04-.09.392.392 0 0 0-.019-.044.886.886 0 0 0-.028-.063 4.212 4.212 0 0 0-.107-.22 1.575 1.575 0 0 1-.025-.052 2.832 2.832 0 0 1-.167-.346.255.255 0 0 0-.015-.031.39.39 0 0 0-.017-.032.264.264 0 0 0-.015-.029.333.333 0 0 0-.016-.027.233.233 0 0 1-.007-.015.134.134 0 0 0-.007-.013.137.137 0 0 1-.007-.014.132.132 0 0 0-.007-.013.182.182 0 0 1-.007-.013.177.177 0 0 0-.008-.013.128.128 0 0 1-.007-.014.246.246 0 0 0-.015-.03.122.122 0 0 0-.007-.013A.092.092 0 0 1 5.7.973a.675.675 0 0 1-.032-.05A.212.212 0 0 1 5.66.91a.37.37 0 0 1-.033-.044.071.071 0 0 0-.008-.011.179.179 0 0 1-.016-.018.541.541 0 0 0-.078-.072.207.207 0 0 0-.026-.02.78.78 0 0 1-.069-.035.73.73 0 0 0-.254-.072H5.007a.506.506 0 0 0-.09.018 2.3 2.3 0 0 1-.027.02.122.122 0 0 1-.009.009.143.143 0 0 0-.01.009.086.086 0 0 1-.01.008.055.055 0 0 0-.008.008.032.032 0 0 1-.009.008.142.142 0 0 0-.009.005.032.032 0 0 1-.01.005.68.68 0 0 0-.032.004c-.004 0-.004.002 0 .006l.004.006"/></svg>